<svg aria-hidden="true" style="position:absolute;width:0;height:0" xmlns="http://www.w3.org/2000/svg" overflow="hidden">
    <defs>
    <symbol id="icon-instagram" viewBox="0 0 32 32">
        <path d="M16.316 32h-.319c-2.508.006-4.826-.058-7.08-.195-2.066-.126-3.953-.84-5.455-2.065-1.45-1.182-2.44-2.781-2.942-4.75-.438-1.715-.461-3.398-.483-5.026a343.853 343.853 0 0 1-.036-3.96c.003-1.414.02-2.798.036-3.966.022-1.628.045-3.311.483-5.026.503-1.97 1.493-3.568 2.942-4.75C4.965 1.037 6.851.323 8.918.197 11.172.06 13.49-.004 16.004.002c2.509-.005 4.826.058 7.08.195 2.066.126 3.953.84 5.455 2.065 1.45 1.182 2.44 2.781 2.943 4.75.437 1.715.461 3.398.483 5.026.016 1.168.033 2.553.036 3.96v.006c-.003 1.408-.02 2.792-.036 3.96-.022 1.628-.045 3.311-.483 5.026-.503 1.97-1.493 3.568-2.943 4.75-1.502 1.225-3.389 1.939-5.455 2.065-2.159.131-4.376.195-6.768.195zm-.319-2.5c2.468.006 4.733-.056 6.934-.19 1.563-.095 2.917-.602 4.027-1.507 1.026-.837 1.732-1.991 2.1-3.431.364-1.428.385-2.96.406-4.442.016-1.16.032-2.535.036-3.929-.004-1.394-.02-2.769-.036-3.929-.02-1.482-.041-3.015-.406-4.443-.367-1.44-1.074-2.594-2.1-3.431-1.11-.905-2.465-1.412-4.027-1.507a108.807 108.807 0 0 0-6.928-.19c-2.467-.006-4.733.056-6.934.19-1.563.095-2.917.602-4.027 1.507-1.026.837-1.732 1.991-2.1 3.431-.364 1.428-.385 2.96-.406 4.443a363.726 363.726 0 0 0-.036 3.932c.003 1.389.02 2.765.036 3.926.02 1.482.041 3.015.406 4.442.367 1.44 1.074 2.594 2.1 3.431 1.11.905 2.465 1.412 4.027 1.507 2.201.134 4.467.197 6.928.191zm-.06-5.688c-4.308 0-7.813-3.505-7.813-7.812s3.505-7.813 7.813-7.813S23.75 11.692 23.75 16s-3.505 7.812-7.813 7.812zm0-13.125c-2.929 0-5.313 2.383-5.313 5.313s2.383 5.312 5.313 5.312c2.93 0 5.313-2.383 5.313-5.312s-2.383-5.313-5.313-5.313zm8.688-5a1.875 1.875 0 1 0 0 3.75 1.875 1.875 0 0 0 0-3.75z"/>
    </symbol>
    <symbol id="icon-twitter" viewBox="0 0 32 32">
        <path d="M32 5.441c-1.19.583-2.458.97-3.78 1.158 1.36-.908 2.398-2.334 2.886-4.053a12.307 12.307 0 0 1-4.16 1.775C25.742 2.888 24.026 2 22.154 2c-3.632 0-6.556 3.295-6.556 7.335 0 .581.044 1.14.152 1.672-5.454-.297-10.28-3.219-13.522-7.671a8.059 8.059 0 0 0-.898 3.707c0 2.54 1.17 4.791 2.914 6.095-1.054-.022-2.088-.364-2.964-.903v.08c0 3.564 2.274 6.524 5.256 7.206a5.905 5.905 0 0 1-1.72.241c-.42 0-.844-.027-1.242-.125.85 2.904 3.262 5.039 6.13 5.109-2.232 1.952-5.066 3.128-8.134 3.128-.538 0-1.054-.027-1.57-.101 2.906 2.095 6.35 3.291 10.064 3.291 12.072 0 18.672-11.178 18.672-20.868 0-.324-.01-.637-.024-.948C30.014 8.215 31.108 6.925 32 5.441z"/>
    </symbol>
    <symbol id="icon-facebook" viewBox="0 0 32 32">
        <path d="M22.512.007 18.895 0c-4.064 0-6.69 3.091-6.69 7.875v3.631H8.568c-.314 0-.569.292-.569.653v5.261c0 .361.255.652.569.652h3.637v13.275c0 .36.254.652.569.652h4.745c.314 0 .569-.292.569-.652V18.072h4.252c.314 0 .569-.292.569-.652l.002-5.261c0-.173-.06-.339-.167-.461s-.252-.191-.402-.191h-4.254V8.429c0-1.479.307-2.23 1.987-2.23l2.437-.001c.314 0 .568-.292.568-.652V.661c0-.36-.254-.652-.568-.652z"/>
    </symbol>
    <symbol id="icon-mark-list" viewBox="0 0 32 32">
        <path fill="var(--color1, #fff)" stroke="var(--color2, #f3848c)" stroke-width="1.333" d="M31.333 16c0 8.468-6.865 15.333-15.333 15.333S.667 24.468.667 16 7.532.667 16 .667 31.333 7.532 31.333 16z"/>
        <path fill="var(--color1, #fff)" d="M29.333 16c0 7.364-5.97 13.333-13.333 13.333S2.667 23.363 2.667 16C2.667 8.636 8.637 2.667 16 2.667S29.333 8.637 29.333 16z"/>
        <path fill="none" stroke="var(--color2, #f3848c)" stroke-linecap="round" stroke-width=".667" d="M29 16c0 7.18-5.82 13-13 13S3 23.18 3 16 8.82 3 16 3s13 5.82 13 13z"/>
        <path fill="var(--color3, #000)" d="M9.333 10.953a2.859 2.859 0 0 0 2.381 2.814v4.329a.48.48 0 0 0 .476.477h7.62a.476.476 0 0 0 .476-.477v-4.329a2.859 2.859 0 0 0 2.38-2.814 2.86 2.86 0 0 0-2.857-2.857h-1.078c-.603-.862-1.602-1.429-2.732-1.429s-2.129.566-2.732 1.429h-1.078a2.865 2.865 0 0 0-2.857 2.857zm3.333 6.191h6.668v.475h-6.668v-.475zm-.475-8.096h.616c-.093.309-.14.63-.14.952a.472.472 0 0 0 .476.476.48.48 0 0 0 .477-.476c0-1.313 1.068-2.381 2.381-2.381S18.382 8.687 18.382 10a.476.476 0 0 0 .953 0c0-.331-.05-.65-.141-.952h.616a1.906 1.906 0 0 1 1.348 3.25 1.91 1.91 0 0 1-1.344.56h-.003a.478.478 0 0 0-.478.478l.001.005v2.853h-6.668V13.337a.478.478 0 0 0-.477-.477h-.003a1.904 1.904 0 0 1 .004-3.809zm9.046 11.429H10.763a.472.472 0 0 0-.476.476.472.472 0 0 0 .476.476h10.474a.472.472 0 0 0 .476-.476.472.472 0 0 0-.476-.476zm0 1.429H10.763a.472.472 0 0 0-.476.476.472.472 0 0 0 .476.476h10.474a.472.472 0 0 0 .476-.476.472.472 0 0 0-.476-.476zm-2.381 1.441h-5.713a.472.472 0 0 0-.476.476.472.472 0 0 0 .476.476h5.713a.472.472 0 0 0 .476-.476.473.473 0 0 0-.476-.476z"/>
    </symbol>
	<symbol id="icon-menu-close" viewBox="0 0 32 32">
        <path d="M23.884 6.706 16 14.59 8.116 6.706a.995.995 0 0 0-1.38.031 1 1 0 0 0-.031 1.38l7.88 7.884-7.882 7.882a1.002 1.002 0 0 0-.018 1.427.998.998 0 0 0 1.427-.015l7.886-7.882 7.884 7.884a1 1 0 0 0 1.38-.03 1 1 0 0 0 .03-1.38l-7.884-7.884 7.884-7.886a1.002 1.002 0 0 0 .018-1.427.998.998 0 0 0-1.427.015v.002z"/>
    </symbol>
    <symbol id="icon-menu-burger" viewBox="0 0 60 32">
        <path d="M2 0h56a2 2 0 1 1 0 4H2a2 2 0 1 1 0-4zM2 14h56a2 2 0 1 1 0 4H2a2 2 0 1 1 0-4zM2 28h56a2 2 0 1 1 0 4H2a2 2 0 1 1 0-4z"/>
    </symbol>
    </defs>
</svg>